<?xml version="1.0" encoding="UTF-8" standalone="no"?>
<svg width="300" height="200" xmlns="http://www.w3.org/2000/svg">
  <rect width="100%" height="100%" fill="#2d3748"/>
  <g transform="translate(150, 100)">
    <g transform="scale(2)">
      <path d="M21 6H3c-1.1 0-2 .9-2 2v8c0 1.1.9 2 2 2h18c1.1 0 2-.9 2-2V8c0-1.1-.9-2-2-2zm0 10H3V8h18v8zM6 15h2v-2h2v-2H8V9H6v2H4v2h2z" fill="#a0aec0"/>
      <circle cx="14.5" cy="13.5" r="1.5" fill="#a0aec0"/>
      <circle cx="18.5" cy="10.5" r="1.5" fill="#a0aec0"/>
    </g>
  </g>
  <text x="150" y="160" font-family="Arial, sans-serif" font-size="14" text-anchor="middle" fill="#a0aec0">No Image Available</text>
</svg>
